<svg xmlns="http://www.w3.org/2000/svg" width="14" height="14" viewBox="0 0 14 14" fill="none">
  <path
    d="M4.66667 1.16669C4.08333 1.16669 3.20833 1.45835 3.20833 2.62502C3.20833 3.79169 3.20833 4.37502 3.20833 5.25002C3.20833 6.12502 1.75 6.70835 1.75 6.70835C1.75 6.70835 3.20833 7.29169 3.20833 8.16669C3.20833 9.04169 3.20833 10.2084 3.20833 11.375C3.20833 12.5417 4.08333 12.8334 4.66667 12.8334"
    stroke="#969AA0" stroke-width="1.33333" stroke-linecap="round" stroke-linejoin="round" />
  <path
    d="M9.33398 1.16669C9.91732 1.16669 10.7923 1.45835 10.7923 2.62502C10.7923 3.79169 10.7923 4.37502 10.7923 5.25002C10.7923 6.12502 12.2507 6.70835 12.2507 6.70835C12.2507 6.70835 10.7923 7.29169 10.7923 8.16669C10.7923 9.04169 10.7923 10.2084 10.7923 11.375C10.7923 12.5417 9.91732 12.8334 9.33398 12.8334"
    stroke="#969AA0" stroke-width="1.33333" stroke-linecap="round" stroke-linejoin="round" />
</svg>